<svg class="img-fluid" id="outputsvg" xmlns="http://www.w3.org/2000/svg" style="transform: matrix(1, 0, 0, 1, 0, 0); transform-origin: 50% 50%; cursor: move; max-height: none; transition: none 0s ease 0s;" width="3840" height="2160" viewBox="0 0 38400 21600"><g id="l7J4eg5JuPWlsA76ZUvwG05" fill="rgb(0,0,0)" style="transform: none;"><g><path id="pLwDAtRO9" d="M21046 16160 c-467 -54 -842 -274 -1020 -601 -77 -140 -115 -291 -123 -484 -23 -539 247 -992 1036 -1743 108 -103 377 -353 598 -555 l402 -369 -5 -156 c-3 -87 -7 -185 -10 -219 l-5 -62 -74 97 c-239 318 -596 545 -955 608 -144 25 -392 15 -520 -20 -123 -34 -278 -110 -377 -185 -150 -113 -308 -301 -399 -475 -16 -31 -31 -56 -34 -56 -3 0 -24 38 -47 83 -140 274 -339 482 -556 582 -135 62 -222 79 -402 79 -145 -1 -168 -3 -250 -28 -364 -111 -622 -381 -715 -751 -17 -64 -30 -127 -30 -138 0 -13 -17 8 -44 55 -264 463 -672 776 -1114 853 -111 20 -337 19 -439 0 -415 -79 -747 -380 -948 -860 -38 -91 -114 -317 -115 -343 0 -4 -23 46 -50 111 -196 472 -502 857 -812 1021 -121 65 -207 86 -351 86 -589 0 -993 -449 -1161 -1290 -21 -105 -66 -412 -66 -453 0 -7 -29 52 -64 131 -172 382 -394 723 -629 969 -354 368 -725 565 -1207 640 -171 26 -519 24 -700 -4 -298 -47 -477 -97 -655 -183 -193 -94 -284 -191 -285 -302 0 -150 142 -420 289 -547 69 -60 114 -81 173 -81 89 0 127 21 358 190 297 218 536 260 735 128 89 -59 173 -190 211 -329 28 -101 26 -319 -4 -429 -29 -105 -102 -262 -171 -363 -115 -170 -214 -275 -566 -596 -99 -91 -198 -182 -221 -204 l-41 -38 -293 493 c-658 1105 -763 1274 -929 1493 -309 408 -622 667 -907 750 -67 19 -109 25 -188 25 -182 0 -306 -47 -411 -154 -168 -173 -260 -471 -307 -996 -22 -243 -15 -926 15 -1610 49 -1085 52 -1187 38 -1204 -20 -24 -57 1 -137 91 -260 294 -511 707 -724 1188 -204 460 -400 1060 -550 1680 -66 272 -106 483 -135 708 -16 123 -30 197 -40 214 -45 68 -223 102 -442 83 -70 -6 -147 -15 -171 -21 -133 -29 -231 -128 -286 -286 -78 -223 -80 -281 -66 -2483 7 -1082 16 -1880 21 -1902 11 -44 55 -83 112 -99 57 -16 229 1 361 36 124 32 284 94 355 137 101 62 93 -54 86 1203 l-6 1100 37 -95 c20 -52 87 -237 149 -410 137 -382 184 -503 264 -685 276 -624 598 -1039 938 -1209 81 -40 215 -75 316 -82 126 -8 211 16 402 110 288 143 421 249 492 393 l38 77 -1 266 c-1 146 -11 495 -23 775 -38 908 -38 1645 -1 1910 32 223 91 325 180 309 115 -20 254 -159 447 -449 201 -301 624 -1039 918 -1600 l69 -130 -66 -87 c-158 -209 -221 -413 -197 -640 40 -394 289 -757 632 -923 138 -66 219 -86 377 -92 326 -13 500 81 550 296 19 81 8 246 -24 356 -56 190 -259 556 -418 751 l-66 80 322 241 c641 479 812 622 955 798 151 185 243 368 287 575 21 97 25 368 6 455 -6 27 -8 52 -6 54 7 8 120 -107 210 -214 258 -305 450 -686 538 -1065 l24 -105 7 -1171 7 -1172 -144 -6 c-78 -3 -325 -11 -548 -16 -433 -12 -431 -12 -465 -64 -88 -134 26 -618 164 -699 33 -19 -38 -21 769 14 150 6 274 10 276 8 2 -2 9 -177 15 -389 19 -661 37 -928 67 -998 19 -47 60 -91 101 -108 97 -41 441 17 728 123 148 55 221 104 243 163 5 14 6 84 1 165 -4 77 -15 327 -23 555 -9 228 -18 440 -20 471 l-4 56 162 11 c88 7 260 16 381 22 576 27 821 46 864 70 42 22 56 67 56 180 -1 118 -18 194 -71 305 -38 83 -77 123 -130 136 -22 5 -302 12 -624 15 -322 3 -599 7 -617 10 -29 4 -32 9 -37 47 -5 36 -15 278 -41 962 -30 787 -48 1901 -35 2163 26 517 116 852 268 994 56 52 112 73 170 62 306 -55 675 -570 817 -1139 29 -116 33 -152 39 -325 20 -573 120 -1145 265 -1509 153 -383 405 -742 651 -927 155 -117 347 -200 518 -225 120 -17 334 -7 452 21 110 26 231 79 332 146 87 58 244 207 309 293 l49 64 0 -102 c0 -114 13 -152 72 -208 52 -50 94 -63 206 -63 180 0 392 48 549 125 101 50 158 104 169 161 6 33 -4 421 -28 1154 -7 195 -12 639 -12 985 -1 525 2 660 17 813 45 473 127 722 269 820 52 35 135 62 194 62 194 0 404 -259 515 -636 35 -117 35 -117 4 -344 -36 -261 -36 -760 0 -1115 48 -481 165 -898 361 -1286 244 -483 538 -760 920 -866 91 -25 114 -28 279 -28 201 0 291 14 426 66 156 60 372 227 489 378 l55 71 6 -99 c4 -87 9 -105 35 -148 66 -106 207 -136 450 -94 201 34 402 109 468 176 48 48 54 87 45 330 -15 423 -30 1697 -27 2319 l3 640 91 -135 c269 -395 540 -895 719 -1324 128 -309 285 -783 301 -910 5 -38 3 -42 -41 -74 -26 -19 -66 -57 -89 -85 -131 -154 -184 -334 -156 -532 26 -186 86 -337 180 -455 126 -159 272 -232 490 -245 174 -11 310 35 405 138 97 105 127 240 100 449 -9 68 -18 134 -22 147 -5 20 -2 22 18 18 13 -3 110 -19 214 -36 234 -38 411 -71 586 -111 173 -39 378 -50 483 -25 191 45 326 190 357 384 17 103 4 193 -90 618 -149 673 -182 887 -200 1284 -22 482 33 910 152 1185 65 151 167 273 264 318 66 30 188 30 256 -1 165 -74 287 -247 371 -525 l36 -118 -20 -112 c-126 -701 -69 -1582 144 -2203 200 -584 555 -1041 934 -1204 165 -71 242 -85 457 -84 173 0 199 3 290 27 119 32 215 76 322 148 93 63 243 206 304 290 l44 60 5 -119 c5 -110 7 -121 32 -155 33 -42 70 -70 117 -85 49 -17 212 -15 322 4 256 44 447 131 505 230 l26 44 -11 388 c-7 213 -16 520 -22 682 -17 508 -23 1452 -10 1700 28 553 90 824 217 961 57 60 118 89 205 96 65 6 74 4 143 -31 185 -91 362 -376 501 -806 83 -260 85 -274 85 -772 0 -698 20 -2336 29 -2410 25 -186 138 -208 573 -108 263 60 313 84 361 174 l22 41 5 833 5 833 134 -403 c251 -757 342 -1001 458 -1230 91 -180 137 -239 221 -280 64 -32 71 -33 182 -32 244 3 527 116 676 271 112 116 144 216 150 473 21 890 35 1205 74 1645 23 257 28 295 38 295 5 0 13 -43 20 -95 64 -503 329 -1423 621 -2153 81 -203 113 -265 168 -323 68 -73 136 -102 249 -107 116 -5 203 13 384 80 379 140 552 288 576 488 3 31 1 157 -5 280 -33 658 -43 1681 -21 2100 27 509 99 830 234 1033 164 247 407 216 555 -72 64 -125 100 -234 171 -518 80 -319 118 -383 230 -383 173 0 214 214 125 655 -111 555 -336 922 -651 1061 -114 50 -214 67 -374 61 -175 -6 -247 -24 -405 -102 -227 -112 -390 -282 -523 -543 -174 -342 -248 -752 -282 -1567 -12 -281 -12 -858 0 -1175 4 -129 4 -242 0 -250 -10 -18 -43 50 -157 325 -146 352 -261 696 -342 1020 -139 559 -225 1120 -237 1550 -3 110 -7 210 -10 223 -7 36 -70 98 -123 121 -73 31 -181 44 -304 38 -186 -11 -310 -67 -425 -192 -117 -128 -168 -250 -227 -549 -93 -471 -169 -1278 -195 -2076 -6 -184 -14 -350 -16 -368 -12 -78 -59 -44 -142 103 -170 303 -332 743 -472 1285 -103 404 -138 718 -160 1445 -14 457 -21 530 -56 595 -15 27 -37 57 -50 65 -64 42 -331 71 -507 55 -251 -22 -465 -106 -503 -196 -16 -39 -40 -233 -50 -412 l-6 -124 -57 114 c-182 361 -388 546 -670 603 -125 26 -336 17 -454 -19 -386 -116 -661 -420 -752 -829 l-17 -78 -63 105 c-120 200 -233 339 -372 461 -215 188 -473 315 -729 360 -110 19 -317 19 -425 0 -337 -59 -644 -286 -833 -619 l-44 -76 -52 92 c-103 181 -241 341 -383 442 -77 55 -228 128 -312 151 -85 23 -258 31 -352 15 -387 -62 -741 -345 -933 -744 -161 -335 -229 -755 -217 -1331 10 -446 67 -893 172 -1350 19 -83 35 -162 35 -178 0 -46 -27 -50 -278 -38 -122 6 -280 11 -350 11 l-128 0 -18 58 c-106 341 -402 1004 -656 1467 -300 548 -667 1084 -1067 1557 l-74 87 12 694 c12 723 8 911 -27 1221 -69 605 -224 1103 -429 1379 -247 332 -579 553 -940 626 -118 24 -308 33 -419 21z m274 -477 c240 -78 371 -234 479 -568 126 -387 181 -886 181 -1635 l0 -355 -81 80 c-136 135 -451 473 -569 610 -240 280 -408 522 -520 750 -218 440 -227 791 -27 1003 134 141 330 183 537 115z m-4719 -3646 c289 -99 521 -437 654 -952 144 -561 164 -1386 45 -1860 -88 -352 -248 -561 -474 -621 -68 -18 -198 -18 -271 1 -232 61 -430 301 -554 673 -99 297 -157 697 -168 1162 -15 631 85 1127 282 1406 129 182 307 252 486 191z m4500 0 c191 -65 362 -241 483 -498 117 -248 216 -632 261 -1014 22 -186 32 -772 16 -956 -25 -295 -70 -489 -153 -659 -109 -226 -282 -334 -506 -317 -245 18 -443 184 -597 501 -134 273 -208 569 -257 1021 -21 191 -18 766 5 935 79 585 247 912 512 996 64 20 161 16 236 -9z m7884 -2 c279 -99 503 -433 640 -960 85 -323 116 -605 116 -1049 0 -292 -10 -440 -42 -634 -74 -448 -248 -720 -503 -788 -70 -19 -210 -18 -277 2 -333 98 -562 491 -654 1124 -34 235 -47 410 -52 700 -8 431 18 728 87 997 124 480 386 713 685 608z"></path><path id="p3LNZ03ex" d="M1957 13550 c-59 -47 -54 -122 23 -375 158 -514 186 -786 195 -1860 12 -1461 26 -5119 20 -5165 -9 -62 -27 -85 -57 -69 -34 18 -194 177 -265 262 -36 43 -107 140 -157 215 -459 689 -656 1667 -477 2368 41 159 105 301 217 479 94 150 111 214 80 290 -23 55 -54 69 -144 62 -200 -15 -450 -154 -673 -377 -219 -218 -345 -443 -416 -740 -31 -130 -43 -434 -24 -583 48 -361 221 -838 442 -1213 270 -459 672 -894 1076 -1164 148 -98 376 -218 468 -246 79 -24 268 -24 380 0 273 59 512 193 577 324 l23 47 3 2120 c4 2060 -6 3358 -28 3705 -47 738 -257 1281 -632 1634 -236 223 -538 359 -631 286z"></path></g></g><g id="l3YmsszrwYscNr7ydiKr58S" fill="rgb(255,255,255)" style="transform: none;"><g><path id="po2RgA0Qf" d="M21158 16163 c23 -2 59 -2 80 0 20 2 1 4 -43 4 -44 0 -61 -2 -37 -4z"></path><path id="pQ1lTATKI" d="M20488 15999 c-21 -11 -38 -22 -38 -24 0 -5 79 32 89 41 12 11 -18 1 -51 -17z"></path><path id="pZP3IhgMg" d="M22000 15907 c0 -3 17 -17 37 -33 20 -15 33 -23 29 -16 -8 13 -66 56 -66 49z"></path><path id="p7Jkn3Baf" d="M22220 15715 c52 -52 97 -95 100 -95 2 0 -38 43 -90 95 -52 52 -97 95 -100 95 -2 0 38 -43 90 -95z"></path><path id="p9m7Q5rnp" d="M20082 15653 c-26 -38 -34 -53 -29 -53 2 0 16 18 31 40 29 45 28 56 -2 13z"></path><path id="p2VggmeMn" d="M20785 15578 l-50 -53 53 50 c28 27 52 51 52 52 0 8 -9 -1 -55 -49z"></path><path id="p186CvpXVi" d="M20695 15459 c-9 -17 -15 -33 -13 -35 3 -2 12 12 21 31 21 43 13 47 -8 4z"></path><path id="pyjj7dp7" d="M20633 15170 c0 -36 2 -50 4 -32 2 17 2 47 0 65 -2 17 -4 3 -4 -33z"></path><path id="pMgnB5pud" d="M19903 15115 c0 -22 2 -30 4 -17 2 12 2 30 0 40 -3 9 -5 -1 -4 -23z"></path><path id="pbReMvQtX" d="M19903 14925 c0 -22 2 -30 4 -17 2 12 2 30 0 40 -3 9 -5 -1 -4 -23z"></path><path id="pm3yfj14y" d="M20030 14446 c0 -11 50 -106 55 -106 3 0 -7 24 -21 53 -28 55 -34 65 -34 53z"></path><path id="pM0kzN6Bm" d="M21952 14280 c0 -19 2 -27 5 -17 2 9 2 25 0 35 -3 9 -5 1 -5 -18z"></path><path id="pkjT12kSg" d="M20139 14245 c5 -11 17 -29 26 -40 l16 -20 -10 20 c-5 11 -17 29 -26 40 l-16 20 10 -20z"></path><path id="p1Dihvene8" d="M21963 14145 c0 -22 2 -30 4 -17 2 12 2 30 0 40 -3 9 -5 -1 -4 -23z"></path><path id="p138diO5T7" d="M21973 13965 c0 -33 2 -45 4 -27 2 18 2 45 0 60 -2 15 -4 0 -4 -33z"></path><path id="p1GhofI244" d="M22853 13875 c0 -22 2 -30 4 -17 2 12 2 30 0 40 -3 9 -5 -1 -4 -23z"></path><path id="p17M7DvYxu" d="M20410 13877 c0 -2 15 -16 33 -33 l32 -29 -29 33 c-28 30 -36 37 -36 29z"></path><path id="ppxTBARfk" d="M21300 13837 c0 -2 15 -16 33 -33 l32 -29 -29 33 c-28 30 -36 37 -36 29z"></path><path id="p15FvN17vO" d="M20515 13760 c27 -27 51 -50 54 -50 3 0 -17 23 -44 50 -27 28 -51 50 -54 50 -3 0 17 -22 44 -50z"></path><path id="pk2CMk7cc" d="M21390 13735 c19 -19 36 -35 39 -35 3 0 -10 16 -29 35 -19 19 -36 35 -39 35 -3 0 10 -16 29 -35z"></path><path id="p12OD4wMTh" d="M22863 13660 c0 -47 2 -66 4 -42 2 23 2 61 0 85 -2 23 -4 4 -4 -43z"></path><path id="p1AXUXu2cq" d="M20750 13515 c96 -96 177 -175 180 -175 3 0 -74 79 -170 175 -96 96 -177 175 -180 175 -3 0 74 -79 170 -175z"></path><path id="p1DLBlLnVi" d="M21480 13638 c24 -27 45 -48 47 -48 8 0 0 9 -44 50 l-48 45 45 -47z"></path><path id="pRE9DbhSi" d="M21982 13390 l-2 -265 -117 115 -118 115 117 -120 c65 -65 120 -117 123 -114 3 4 4 125 2 270 l-2 264 -3 -265z"></path><path id="pItmeAwqA" d="M21620 13485 c47 -47 87 -85 90 -85 2 0 -33 38 -80 85 -47 47 -87 85 -90 85 -2 0 33 -38 80 -85z"></path><path id="pBiMPPhMd" d="M22864 13270 c0 -74 1 -105 3 -67 2 37 2 97 0 135 -2 37 -3 6 -3 -68z"></path><path id="p1D19y4TVN" d="M2620 13225 c47 -47 87 -85 90 -85 2 0 -33 38 -80 85 -47 47 -87 85 -90 85 -2 0 33 -38 80 -85z"></path><path id="pq0qaSLWT" d="M21035 13240 c38 -38 72 -70 74 -70 3 0 -26 32 -64 70 -38 39 -72 70 -74 70 -3 0 26 -31 64 -70z"></path><path id="pvXaylH7T" d="M21190 13095 c30 -30 57 -55 59 -55 3 0 -19 25 -49 55 -30 30 -57 55 -59 55 -3 0 19 -25 49 -55z"></path><path id="pahYOV0rL" d="M2805 13003 c15 -24 30 -43 32 -43 7 0 -31 61 -46 73 -8 7 -2 -7 14 -30z"></path><path id="p15eMol4zW" d="M21315 12980 c27 -27 51 -50 54 -50 3 0 -17 23 -44 50 -27 28 -51 50 -54 50 -3 0 17 -22 44 -50z"></path><path id="pFNx411J5" d="M21435 12870 c27 -27 51 -50 54 -50 3 0 -17 23 -44 50 -27 28 -51 50 -54 50 -3 0 17 -22 44 -50z"></path><path id="pYeC2CgD9" d="M2915 12820 c9 -16 18 -30 21 -30 2 0 -2 14 -11 30 -9 17 -18 30 -21 30 -2 0 2 -13 11 -30z"></path><path id="pStSzzEYm" d="M21555 12760 c27 -27 51 -50 54 -50 3 0 -17 23 -44 50 -27 28 -51 50 -54 50 -3 0 17 -22 44 -50z"></path><path id="p13hONDX1H" d="M22854 12675 c0 -77 2 -107 3 -67 2 40 2 103 0 140 -2 37 -3 4 -3 -73z"></path><path id="puFXC9Odb" d="M2951 12755 c0 -5 6 -21 14 -35 8 -14 14 -20 14 -15 0 6 -6 21 -14 35 -8 14 -14 21 -14 15z"></path><path id="p2pgmaQU8" d="M10103 12703 c20 -2 54 -2 75 0 20 2 3 4 -38 4 -41 0 -58 -2 -37 -4z"></path><path id="pMnBqiQX" d="M10267 12703 c18 -2 50 -2 70 0 21 2 7 4 -32 4 -38 0 -55 -2 -38 -4z"></path><path id="pnRs8jj5M" d="M4768 12693 c18 -2 45 -2 60 0 15 2 0 4 -33 4 -33 0 -45 -2 -27 -4z"></path><path id="pmJZvANWH" d="M21675 12650 c27 -27 51 -50 54 -50 3 0 -17 23 -44 50 -27 28 -51 50 -54 50 -3 0 17 -22 44 -50z"></path><path id="pI5dNw1UD" d="M32523 12693 c15 -2 39 -2 55 0 15 2 2 4 -28 4 -30 0 -43 -2 -27 -4z"></path><path id="p15LFntnJS" d="M18623 12683 c9 -2 25 -2 35 0 9 3 1 5 -18 5 -19 0 -27 -2 -17 -5z"></path><path id="p1FbMfBboU" d="M37431 12626 c10 -9 89 -46 89 -41 0 5 -75 45 -86 45 -4 0 -5 -2 -3 -4z"></path><path id="p9csjhKKe" d="M4321 12566 c-28 -30 -51 -58 -51 -62 0 -4 1 -5 3 -3 2 2 27 30 57 62 29 31 51 57 48 57 -3 0 -28 -24 -57 -54z"></path><path id="pzYBY7GxF" d="M13238 12589 c-21 -11 -38 -22 -38 -24 0 -5 79 32 89 41 12 11 -18 1 -51 -17z"></path><path id="pxXdHs1cq" d="M32048 12594 c-39 -21 -35 -28 5 -8 37 19 44 24 31 24 -5 -1 -21 -8 -36 -16z"></path><path id="p1A2nGiKDd" d="M30508 12584 c-39 -21 -35 -28 5 -8 37 19 44 24 31 24 -5 -1 -21 -8 -36 -16z"></path><path id="pFbdwWr2L" d="M6955 12538 l-40 -43 43 40 c39 36 47 45 39 45 -2 0 -21 -19 -42 -42z"></path><path id="pqFGXEmJC" d="M21805 12530 c27 -27 51 -50 54 -50 3 0 -17 23 -44 50 -27 28 -51 50 -54 50 -3 0 17 -22 44 -50z"></path><path id="phiN6dAGi" d="M29121 12556 c10 -9 69 -36 69 -32 0 6 -55 36 -66 36 -4 0 -5 -2 -3 -4z"></path><path id="pdOb4lDzL" d="M26990 12536 c0 -2 14 -14 30 -26 17 -12 30 -19 30 -16 0 2 -13 14 -30 26 -16 12 -30 19 -30 16z"></path><path id="p46f81haY" d="M11120 12515 c14 -8 30 -14 35 -14 6 0 -1 6 -15 14 -14 8 -29 14 -35 14 -5 0 1 -6 15 -14z"></path><path id="pKzunknse" d="M20037 12505 c-20 -14 -37 -28 -37 -31 0 -2 18 8 40 22 35 23 47 34 37 34 -1 0 -19 -11 -40 -25z"></path><path id="p88nHcDQi" d="M37680 12455 c30 -30 57 -55 59 -55 3 0 -19 25 -49 55 -30 30 -57 55 -59 55 -3 0 19 -25 49 -55z"></path><path id="pD19ihSB3" d="M31555 12450 c27 -27 51 -50 54 -50 3 0 -17 23 -44 50 -27 28 -51 50 -54 50 -3 0 17 -22 44 -50z"></path><path id="paXa5ENui" d="M4245 12459 c-9 -17 -15 -33 -13 -35 3 -2 12 12 21 31 21 43 13 47 -8 4z"></path><path id="py4RxQUsi" d="M9148 12474 c-38 -20 -36 -28 2 -9 17 9 30 18 30 20 0 7 -1 6 -32 -11z"></path><path id="praCI47c" d="M11190 12486 c0 -3 14 -12 30 -21 17 -9 30 -13 30 -11 0 3 -13 12 -30 21 -16 9 -30 13 -30 11z"></path><path id="pDBWKzIsF" d="M19235 12400 c44 -44 82 -80 85 -80 2 0 -31 36 -75 80 -44 44 -82 80 -85 80 -2 0 31 -36 75 -80z"></path><path id="pcx7TFBf6" d="M12985 12398 l-70 -73 73 70 c67 64 77 75 69 75 -1 0 -34 -33 -72 -72z"></path><path id="puaZsHFe9" d="M21880 12467 c0 -2 15 -16 33 -33 l32 -29 -29 33 c-28 30 -36 37 -36 29z"></path><path id="pf70DW4Pb" d="M14335 12370 c49 -49 92 -90 95 -90 2 0 -36 41 -85 90 -49 50 -92 90 -95 90 -2 0 36 -40 85 -90z"></path><path id="pZnI4zwNa" d="M17860 12393 l-55 -58 58 55 c31 30 57 56 57 57 0 8 -10 -1 -60 -54z"></path><path id="p11cEqKoql" d="M30240 12383 l-65 -68 68 65 c37 35 67 66 67 67 0 8 -10 -2 -70 -64z"></path><path id="p1Bf2DbQUI" d="M19850 12343 l-85 -88 88 85 c81 79 92 90 84 90 -1 0 -41 -39 -87 -87z"></path><path id="pItNcqf47" d="M27170 12388 c24 -27 45 -48 47 -48 8 0 0 9 -44 50 l-48 45 45 -47z"></path><path id="pQ4prouNZ" d="M36380 12385 c-24 -25 -42 -45 -39 -45 3 0 25 20 49 45 24 25 42 45 39 45 -3 0 -25 -20 -49 -45z"></path><path id="pJjNqO3fQ" d="M25705 12328 l-80 -83 83 80 c76 74 87 85 79 85 -1 0 -38 -37 -82 -82z"></path><path id="p1CafxXkgG" d="M27730 12355 c-24 -25 -42 -45 -39 -45 3 0 25 20 49 45 24 25 42 45 39 45 -3 0 -25 -20 -49 -45z"></path><path id="pumDFEi0a" d="M15355 12348 l-40 -43 43 40 c39 36 47 45 39 45 -2 0 -21 -19 -42 -42z"></path><path id="pITRkPHq0" d="M33033 12330 c0 -36 2 -50 4 -32 2 17 2 47 0 65 -2 17 -4 3 -4 -33z"></path><path id="p1BmaJnXC6" d="M37774 12347 c16 -20 30 -37 33 -37 7 0 -36 58 -49 66 -7 4 1 -9 16 -29z"></path><path id="pA7eaXFhR" d="M8150 12268 c57 -60 106 -108 107 -108 8 0 -5 13 -104 110 l-108 105 105 -107z"></path><path id="pqBeYrLfR" d="M8968 12333 c-18 -21 -31 -43 -25 -43 2 0 13 14 25 30 25 33 24 41 0 13z"></path><path id="p1Agsrlh7u" d="M21615 12310 c21 -22 41 -40 44 -40 3 0 -13 18 -34 40 -21 22 -41 40 -44 40 -3 0 13 -18 34 -40z"></path><path id="pDZWAApMo" d="M17190 12245 c47 -47 87 -85 90 -85 2 0 -33 38 -80 85 -47 47 -87 85 -90 85 -2 0 33 -38 80 -85z"></path><path id="p1ByE17sMF" d="M34698 12323 c29 -2 74 -2 100 0 26 2 2 3 -53 3 -55 0 -76 -1 -47 -3z"></path><path id="pijEsvLIZ" d="M21933 12255 c0 -38 2 -53 4 -32 2 20 2 52 0 70 -2 17 -4 1 -4 -38z"></path><path id="pZvfEhcJL" d="M29565 12240 c38 -38 72 -70 74 -70 3 0 -26 32 -64 70 -38 39 -72 70 -74 70 -3 0 26 -31 64 -70z"></path><path id="puKCYHJ4l" d="M2153 12235 c0 -22 2 -30 4 -17 2 12 2 30 0 40 -3 9 -5 -1 -4 -23z"></path><path id="p4rLmuMx7" d="M35060 12235 c19 -19 36 -35 39 -35 3 0 -10 16 -29 35 -19 19 -36 35 -39 35 -3 0 10 -16 29 -35z"></path><path id="p1Fy7f2Z3i" d="M31893 12205 c0 -22 2 -30 4 -17 2 12 2 30 0 40 -3 9 -5 -1 -4 -23z"></path><path id="pIqKAwgm2" d="M11715 12090 c66 -66 122 -120 125 -120 2 0 -49 54 -115 120 -66 66 -122 120 -125 120 -2 0 49 -54 115 -120z"></path><path id="ppb8mi8x6" d="M21750 12175 c19 -19 36 -35 39 -35 3 0 -10 16 -29 35 -19 19 -36 35 -39 35 -3 0 10 -16 29 -35z"></path><path id="ppHm68Bft" d="M34280 12153 l-55 -58 58 55 c53 50 62 60 54 60 -1 0 -27 -26 -57 -57z"></path><path id="pokE7rxuH" d="M14540 12130 c12 -16 24 -30 26 -30 3 0 -4 14 -16 30 -12 17 -24 30 -26 30 -3 0 4 -13 16 -30z"></path><path id="pxO9glb58" d="M8270 12137 c0 -2 15 -16 33 -33 l32 -29 -29 33 c-28 30 -36 37 -36 29z"></path><path id="pIpr95ybn" d="M17652 12095 c-17 -37 -14 -45 4 -12 9 16 14 31 11 33 -2 2 -9 -7 -15 -21z"></path><path id="pBlq6I5Bz" d="M31812 12075 c12 -24 23 -43 26 -41 4 5 -36 86 -43 86 -3 0 5 -20 17 -45z"></path><path id="p1enmshAI" d="M2163 12045 c0 -33 2 -45 4 -27 2 18 2 45 0 60 -2 15 -4 0 -4 -33z"></path><path id="p1CtMeF2md" d="M33043 12025 c0 -44 2 -61 4 -37 2 23 2 59 0 80 -2 20 -4 1 -4 -43z"></path><path id="p1Dz9OxYu1" d="M19485 12060 c9 -16 18 -30 21 -30 2 0 -2 14 -11 30 -9 17 -18 30 -21 30 -2 0 2 -13 11 -30z"></path><path id="pVpNcD0o3" d="M31241 12076 c10 -9 69 -36 69 -32 0 6 -55 36 -66 36 -4 0 -5 -2 -3 -4z"></path><path id="p108IwNuzp" d="M31883 12035 c0 -27 2 -38 4 -22 2 15 2 37 0 50 -2 12 -4 0 -4 -28z"></path><path id="pODRssLwS" d="M4153 12035 c0 -22 2 -30 4 -17 2 12 2 30 0 40 -3 9 -5 -1 -4 -23z"></path><path id="pJX4ndeFM" d="M20948 12063 c12 -2 32 -2 45 0 12 2 2 4 -23 4 -25 0 -35 -2 -22 -4z"></path><path id="pR88AglCd" d="M28828 12063 c12 -2 30 -2 40 0 9 3 -1 5 -23 4 -22 0 -30 -2 -17 -4z"></path><path id="pDJbJ7EFt" d="M27432 12015 c12 -25 25 -45 29 -45 4 0 -4 20 -18 45 -13 25 -27 45 -29 45 -2 0 6 -20 18 -45z"></path><path id="pWuDipJFY" d="M20788 12024 c-39 -21 -35 -28 5 -8 37 19 44 24 31 24 -5 -1 -21 -8 -36 -16z"></path><path id="pTt7F85kR" d="M30925 11998 l-40 -43 43 40 c39 36 47 45 39 45 -2 0 -21 -19 -42 -42z"></path><path id="prnekVct7" d="M19050 11975 c30 -30 57 -55 59 -55 3 0 -19 25 -49 55 -30 30 -57 55 -59 55 -3 0 19 -25 49 -55z"></path><path id="p5AgGcs4u" d="M19595 12000 c-9 -16 -13 -30 -11 -30 3 0 12 14 21 30 9 17 13 30 11 30 -3 0 -12 -13 -21 -30z"></path><path id="pJp3NBmM2" d="M21918 11994 c-2 -19 0 -37 4 -40 4 -3 8 13 8 35 0 51 -6 53 -12 5z"></path><path id="p1BZks260V" d="M26485 11978 l-50 -53 53 50 c28 27 52 51 52 52 0 8 -9 -1 -55 -49z"></path><path id="pkGUL1iox" d="M25455 11990 c-9 -16 -13 -30 -11 -30 3 0 12 14 21 30 9 17 13 30 11 30 -3 0 -12 -13 -21 -30z"></path><path id="prZ8J9Tdh" d="M31395 11970 c27 -27 51 -50 54 -50 3 0 -17 23 -44 50 -27 28 -51 50 -54 50 -3 0 17 -22 44 -50z"></path><path id="p13rH08yjm" d="M37083 11974 l-48 -46 45 37 c60 51 65 55 58 55 -3 0 -28 -21 -55 -46z"></path><path id="pvyIeiCYn" d="M37465 11960 c27 -27 51 -50 54 -50 3 0 -17 23 -44 50 -27 28 -51 50 -54 50 -3 0 17 -22 44 -50z"></path><path id="p1FpyTEguW" d="M15069 11939 c-16 -34 -29 -63 -27 -65 2 -2 18 26 36 61 17 36 30 65 27 65 -3 0 -19 -27 -36 -61z"></path><path id="p16DGIrRp1" d="M19531 11975 c-1 -20 26 -58 33 -46 4 6 3 11 -2 11 -5 0 -14 10 -20 23 -6 12 -11 18 -11 12z"></path><path id="pO7fMzVmE" d="M28545 11928 l-50 -53 53 50 c48 46 57 55 49 55 -1 0 -25 -24 -52 -52z"></path><path id="p1E7JDaBEZ" d="M16175 11928 l-40 -43 43 40 c39 36 47 45 39 45 -2 0 -21 -19 -42 -42z"></path><path id="pivtf7c8Y" d="M20665 11928 l-40 -43 43 40 c39 36 47 45 39 45 -2 0 -21 -19 -42 -42z"></path><path id="pUfL9lrRp" d="M25422 11925 c-17 -37 -14 -45 4 -12 9 16 14 31 11 33 -2 2 -9 -7 -15 -21z"></path><path id="pOK0eKjdK" d="M10391 11936 c10 -9 69 -36 69 -32 0 6 -55 36 -66 36 -4 0 -5 -2 -3 -4z"></path><path id="p9MViAgAG" d="M29230 11875 c30 -30 57 -55 59 -55 3 0 -19 25 -49 55 -30 30 -57 55 -59 55 -3 0 19 -25 49 -55z"></path><path id="pKJs5K8Pa" d="M13760 11875 c-24 -25 -42 -45 -39 -45 3 0 25 20 49 45 24 25 42 45 39 45 -3 0 -25 -20 -49 -45z"></path><path id="ppCsYQpcC" d="M9938 11894 c-39 -21 -35 -28 5 -8 37 19 44 24 31 24 -5 -1 -21 -8 -36 -16z"></path><path id="pl7RZjVIH" d="M16860 11875 c19 -19 36 -35 39 -35 3 0 -10 16 -29 35 -19 19 -36 35 -39 35 -3 0 10 -16 29 -35z"></path><path id="p1HTcHdvxI" d="M4144 11735 c0 -77 2 -107 3 -67 2 40 2 103 0 140 -2 37 -3 4 -3 -73z"></path><path id="p1BtIxS7pZ" d="M35123 11815 c0 -22 2 -30 4 -17 2 12 2 30 0 40 -3 9 -5 -1 -4 -23z"></path><path id="pdnRzjRt7" d="M37572 11805 c12 -24 23 -43 26 -41 4 5 -36 86 -43 86 -3 0 5 -20 17 -45z"></path><path id="pw0qy89qG" d="M8530 11810 c12 -16 24 -30 26 -30 3 0 -4 14 -16 30 -12 17 -24 30 -26 30 -3 0 4 -13 16 -30z"></path><path id="pNZf0TmEO" d="M14190 11827 c0 -1 35 -36 78 -77 l77 -75 -75 78 c-69 71 -80 82 -80 74z"></path><path id="p7mLSZFAs" d="M2174 11700 c0 -69 1 -97 3 -62 2 34 2 90 0 125 -2 34 -3 6 -3 -63z"></path><path id="pIG7vFzut" d="M29907 11767 c16 -36 34 -35 32 3 0 10 -3 8 -9 -5 -5 -11 -9 -15 -9 -9 -1 5 -8 19 -16 30 -12 15 -12 11 2 -19z"></path><path id="p3Ssks6dE" d="M33053 11720 c0 -36 2 -50 4 -32 2 17 2 47 0 65 -2 17 -4 3 -4 -33z"></path><path id="p1FGn2AvSM" d="M16035 11729 c-9 -17 -15 -33 -13 -35 3 -2 12 12 21 31 21 43 13 47 -8 4z"></path><path id="pamtIhz3z" d="M9165 11690 c21 -22 41 -40 44 -40 3 0 -13 18 -34 40 -21 22 -41 40 -44 40 -3 0 13 -18 34 -40z"></path><path id="p1B73gJmht" d="M12040 11700 c12 -16 24 -30 26 -30 3 0 -4 14 -16 30 -12 17 -24 30 -26 30 -3 0 4 -13 16 -30z"></path><path id="p1fmXY9rA" d="M3213 11675 c0 -22 2 -30 4 -17 2 12 2 30 0 40 -3 9 -5 -1 -4 -23z"></path><path id="pqt1R8bqR" d="M8625 11673 c15 -24 30 -43 32 -43 7 0 -31 61 -46 73 -8 7 -2 -7 14 -30z"></path><path id="pENVzDUzi" d="M8070 11605 c35 -36 67 -65 69 -65 3 0 -24 29 -59 65 -35 36 -67 65 -69 65 -3 0 24 -29 59 -65z"></path><path id="pxCBH1l9E" d="M17082 11555 c18 -35 34 -63 36 -61 4 5 -56 126 -63 126 -3 0 10 -29 27 -65z"></path><path id="p06bLPBlY" d="M6652 11580 c0 -19 2 -27 5 -17 2 9 2 25 0 35 -3 9 -5 1 -5 -18z"></path><path id="pOG7tEaek" d="M14430 11550 c12 -16 24 -30 26 -30 3 0 -4 14 -16 30 -12 17 -24 30 -26 30 -3 0 4 -13 16 -30z"></path><path id="pZ3evaa5O" d="M33063 11515 c0 -27 2 -38 4 -22 2 15 2 37 0 50 -2 12 -4 0 -4 -28z"></path><path id="pHsd3Ja4q" d="M23390 11520 c12 -16 24 -30 26 -30 3 0 -4 14 -16 30 -12 17 -24 30 -26 30 -3 0 4 -13 16 -30z"></path><path id="p13CNO6hj7" d="M3223 11455 c0 -44 2 -61 4 -37 2 23 2 59 0 80 -2 20 -4 1 -4 -43z"></path><path id="p1Fd3qFLg4" d="M6643 11445 c0 -22 2 -30 4 -17 2 12 2 30 0 40 -3 9 -5 -1 -4 -23z"></path><path id="phiy3VAnJ" d="M4145 11085 c0 -192 1 -270 2 -172 2 98 2 256 0 350 -1 95 -3 15 -2 -178z"></path><path id="piH73F6L7" d="M11735 11350 c38 -38 72 -70 74 -70 3 0 -26 32 -64 70 -38 39 -72 70 -74 70 -3 0 26 -31 64 -70z"></path><path id="pSTCv3UUT" d="M33073 11365 c0 -22 2 -30 4 -17 2 12 2 30 0 40 -3 9 -5 -1 -4 -23z"></path><path id="pQwrRnN3X" d="M10713 11350 c0 -25 2 -35 4 -22 2 12 2 32 0 45 -2 12 -4 2 -4 -23z"></path><path id="pSRjnz3lq" d="M8306 11300 c26 -38 49 -70 51 -70 5 0 -2 12 -49 83 -21 31 -41 57 -43 57 -3 0 16 -31 41 -70z"></path><path id="paruXpKXG" d="M19362 11320 c0 -19 2 -27 5 -17 2 9 2 25 0 35 -3 9 -5 1 -5 -18z"></path><path id="pdNb1NJCA" d="M7672 11300 c0 -19 2 -27 5 -17 2 9 2 25 0 35 -3 9 -5 1 -5 -18z"></path><path id="pvDBUrpzj" d="M12317 11225 c26 -52 49 -93 51 -91 4 5 -86 186 -93 186 -3 0 16 -43 42 -95z"></path><path id="pcxhj5mGc" d="M6634 11160 c0 -69 1 -97 3 -62 2 34 2 90 0 125 -2 34 -3 6 -3 -63z"></path><path id="p10vwJSDAx" d="M18352 11250 c0 -19 2 -27 5 -17 2 9 2 25 0 35 -3 9 -5 1 -5 -18z"></path><path id="pwgGxM7Iu" d="M33082 11240 c0 -19 2 -27 5 -17 2 9 2 25 0 35 -3 9 -5 1 -5 -18z"></path><path id="p14HxtGO8M" d="M11820 11257 c0 -2 15 -16 33 -33 l32 -29 -29 33 c-28 30 -36 37 -36 29z"></path><path id="p19c6PhrOA" d="M11674 11150 c0 -58 1 -81 3 -52 2 28 2 76 0 105 -2 28 -3 5 -3 -53z"></path><path id="p3cRKsL8p" d="M22834 10910 c0 -190 2 -267 3 -172 2 94 2 250 0 345 -1 94 -3 17 -3 -173z"></path><path id="piviVyeql" d="M30713 11185 c0 -22 2 -30 4 -17 2 12 2 30 0 40 -3 9 -5 -1 -4 -23z"></path><path id="pSfIwnQMn" d="M3234 11060 c0 -69 1 -97 3 -62 2 34 2 90 0 125 -2 34 -3 6 -3 -63z"></path><path id="prmADfYi8" d="M7663 11120 c0 -36 2 -50 4 -32 2 17 2 47 0 65 -2 17 -4 3 -4 -33z"></path><path id="pTrfo8S4y" d="M18343 11125 c0 -22 2 -30 4 -17 2 12 2 30 0 40 -3 9 -5 -1 -4 -23z"></path><path id="pfBtDEJTV" d="M26193 11085 c0 -22 2 -30 4 -17 2 12 2 30 0 40 -3 9 -5 -1 -4 -23z"></path><path id="pimjoRznE" d="M11980 11060 c12 -16 24 -30 26 -30 3 0 -4 14 -16 30 -12 17 -24 30 -26 30 -3 0 4 -13 16 -30z"></path><path id="pSL3FMUuk" d="M13513 11035 c0 -22 2 -30 4 -17 2 12 2 30 0 40 -3 9 -5 -1 -4 -23z"></path><path id="pCW6TgtfW" d="M30703 11000 c0 -36 2 -50 4 -32 2 17 2 47 0 65 -2 17 -4 3 -4 -33z"></path><path id="p1HSE814I" d="M35892 11010 c0 -19 2 -27 5 -17 2 9 2 25 0 35 -3 9 -5 1 -5 -18z"></path><path id="po9nYKmkU" d="M19322 11000 c0 -19 2 -27 5 -17 2 9 2 25 0 35 -3 9 -5 1 -5 -18z"></path><path id="p2AoCXHk0" d="M36783 10985 c0 -22 2 -30 4 -17 2 12 2 30 0 40 -3 9 -5 -1 -4 -23z"></path><path id="p18Uvhlouz" d="M37838 10985 c6 -11 21 -29 34 -40 22 -19 22 -19 -2 10 -40 48 -43 51 -32 30z"></path><path id="pUGOHXqPQ" d="M12459 10962 c-3 -20 -2 -29 4 -23 5 5 7 19 5 32 -3 20 -5 19 -9 -9z"></path><path id="pKVTNsf6l" d="M18333 10930 c0 -36 2 -50 4 -32 2 17 2 47 0 65 -2 17 -4 3 -4 -33z"></path><path id="pxubYWYX2" d="M27202 10960 c0 -19 2 -27 5 -17 2 9 2 25 0 35 -3 9 -5 1 -5 -18z"></path><path id="p17jnG8Mv8" d="M6634 10830 c0 -85 2 -120 3 -77 2 42 2 112 0 155 -1 42 -3 7 -3 -78z"></path><path id="p11AV6Yn4Y" d="M25213 10925 c0 -33 2 -45 4 -27 2 18 2 45 0 60 -2 15 -4 0 -4 -33z"></path><path id="p7pfNR5Cq" d="M10597 10915 c-15 -30 -25 -55 -22 -55 7 0 57 101 53 106 -2 2 -16 -21 -31 -51z"></path><path id="p1FqHeUbgE" d="M26183 10890 c0 -47 2 -66 4 -42 2 23 2 61 0 85 -2 23 -4 4 -4 -43z"></path><path id="paP2cYah5" d="M13503 10845 c0 -44 2 -61 4 -37 2 23 2 59 0 80 -2 20 -4 1 -4 -43z"></path><path id="p53c3dk1Q" d="M35882 10890 c0 -19 2 -27 5 -17 2 9 2 25 0 35 -3 9 -5 1 -5 -18z"></path><path id="pStZM8wT6" d="M19313 10870 c0 -25 2 -35 4 -22 2 12 2 32 0 45 -2 12 -4 2 -4 -23z"></path><path id="pvG7AqNle" d="M20333 10875 c0 -22 2 -30 4 -17 2 12 2 30 0 40 -3 9 -5 -1 -4 -23z"></path><path id="p156ktUVt2" d="M28213 10870 c0 -25 2 -35 4 -22 2 12 2 32 0 45 -2 12 -4 2 -4 -23z"></path><path id="p5TfL8Nmw" d="M27193 10830 c0 -25 2 -35 4 -22 2 12 2 32 0 45 -2 12 -4 2 -4 -23z"></path><path id="p03Kn2ZZQ" d="M15833 10820 c0 -25 2 -35 4 -22 2 12 2 32 0 45 -2 12 -4 2 -4 -23z"></path><path id="p10MFHxvqe" d="M36773 10795 c0 -33 2 -45 4 -27 2 18 2 45 0 60 -2 15 -4 0 -4 -33z"></path><path id="p1Eb3pj5Ow" d="M10505 10758 c-16 -24 -22 -38 -14 -31 15 12 53 73 46 73 -2 0 -17 -19 -32 -42z"></path><path id="pfAlUyE0o" d="M35873 10740 c0 -25 2 -35 4 -22 2 12 2 32 0 45 -2 12 -4 2 -4 -23z"></path><path id="pl2tfnPqo" d="M20324 10575 c0 -88 2 -123 3 -77 2 46 2 118 0 160 -1 42 -3 5 -3 -83z"></path><path id="pdfvWklh3" d="M23325 10680 c9 -16 18 -30 21 -30 2 0 -2 14 -11 30 -9 17 -18 30 -21 30 -2 0 2 -13 11 -30z"></path><path id="pNfvvbxk4" d="M28204 10540 c0 -96 2 -136 3 -87 2 48 2 126 0 175 -1 48 -3 8 -3 -88z"></path><path id="p10MuuPVGJ" d="M26183 10625 c0 -44 2 -61 4 -37 2 23 2 59 0 80 -2 20 -4 1 -4 -43z"></path><path id="pQdFKKbmt" d="M14804 10545 c0 -60 1 -84 3 -52 2 32 2 81 0 110 -2 29 -3 3 -3 -58z"></path><path id="pLaDo6FD2" d="M27184 10525 c0 -71 1 -99 3 -62 2 37 2 96 0 130 -2 34 -3 4 -3 -68z"></path><path id="pgiGKSpnl" d="M19303 10595 c0 -27 2 -38 4 -22 2 15 2 37 0 50 -2 12 -4 0 -4 -28z"></path><path id="p7ULLWeab" d="M30694 10465 c0 -99 2 -138 3 -87 2 51 2 132 0 180 -1 48 -3 6 -3 -93z"></path><path id="pgZDGpafY" d="M23985 10570 c9 -16 18 -30 21 -30 2 0 -2 14 -11 30 -9 17 -18 30 -21 30 -2 0 2 -13 11 -30z"></path><path id="pFSh3DpVG" d="M35863 10545 c0 -33 2 -45 4 -27 2 18 2 45 0 60 -2 15 -4 0 -4 -33z"></path><path id="pX60iLIyC" d="M23405 10530 c14 -27 28 -50 30 -50 3 0 -6 23 -20 50 -14 28 -28 50 -30 50 -3 0 6 -22 20 -50z"></path><path id="p69tdFTGy" d="M25213 10510 c0 -36 2 -50 4 -32 2 17 2 47 0 65 -2 17 -4 3 -4 -33z"></path><path id="pyXeueFjP" d="M36764 10370 c0 -113 2 -159 3 -102 2 56 2 148 0 205 -1 56 -3 10 -3 -103z"></path><path id="pnnfge6UI" d="M10250 10453 l-95 -98 98 95 c90 88 102 100 94 100 -1 0 -45 -44 -97 -97z"></path><path id="p8UB4M434" d="M6643 10465 c0 -33 2 -45 4 -27 2 18 2 45 0 60 -2 15 -4 0 -4 -33z"></path><path id="pfizbDbsw" d="M34762 10470 c0 -19 2 -27 5 -17 2 9 2 25 0 35 -3 9 -5 1 -5 -18z"></path><path id="pE70XLvQD" d="M21852 10450 c0 -19 2 -27 5 -17 2 9 2 25 0 35 -3 9 -5 1 -5 -18z"></path><path id="pNHOf1cad" d="M33892 10450 c0 -19 2 -27 5 -17 2 9 2 25 0 35 -3 9 -5 1 -5 -18z"></path><path id="pgPJnUEqX" d="M3245 9985 c0 -269 1 -378 2 -242 2 137 2 357 0 490 -1 133 -2 22 -2 -248z"></path><path id="pOMN1KNZc" d="M24060 10430 c11 -22 23 -40 25 -40 3 0 -4 18 -15 40 -11 22 -23 40 -25 40 -3 0 4 -18 15 -40z"></path><path id="poBFofSF7" d="M26193 10415 c0 -22 2 -30 4 -17 2 12 2 30 0 40 -3 9 -5 -1 -4 -23z"></path><path id="p13jGVIJli" d="M13504 10255 c0 -104 2 -146 3 -92 2 54 2 139 0 190 -1 51 -3 7 -3 -98z"></path><path id="psq7d2v1X" d="M29733 10400 c0 -25 2 -35 4 -22 2 12 2 32 0 45 -2 12 -4 2 -4 -23z"></path><path id="pMIA0355R" d="M17362 10400 c0 -19 2 -27 5 -17 2 9 2 25 0 35 -3 9 -5 1 -5 -18z"></path><path id="p5YZmg1jA" d="M23461 10425 c0 -5 13 -35 29 -65 16 -30 29 -50 29 -45 0 6 -13 35 -29 65 -16 30 -29 51 -29 45z"></path><path id="pNzgcqK10" d="M5070 10235 c0 -93 2 -166 5 -164 6 7 8 320 1 326 -3 4 -6 -69 -6 -162z"></path><path id="pgf4Y3iEN" d="M25223 10330 c0 -25 2 -35 4 -22 2 12 2 32 0 45 -2 12 -4 2 -4 -23z"></path><path id="pxuUHa5qj" d="M10075 10288 l-60 -63 63 60 c58 55 67 65 59 65 -1 0 -29 -28 -62 -62z"></path><path id="pLSd1JdbM" d="M21863 10310 c0 -25 2 -35 4 -22 2 12 2 32 0 45 -2 12 -4 2 -4 -23z"></path><path id="pYVolkHFP" d="M33882 10320 c0 -19 2 -27 5 -17 2 9 2 25 0 35 -3 9 -5 1 -5 -18z"></path><path id="pWwkqy1N8" d="M19313 10295 c0 -27 2 -38 4 -22 2 15 2 37 0 50 -2 12 -4 0 -4 -28z"></path><path id="phrIyuMHQ" d="M35854 10200 c0 -74 1 -105 3 -67 2 37 2 97 0 135 -2 37 -3 6 -3 -68z"></path><path id="p10TQ56Wax" d="M14813 10285 c0 -22 2 -30 4 -17 2 12 2 30 0 40 -3 9 -5 -1 -4 -23z"></path><path id="pwpykxxTI" d="M15833 10275 c0 -27 2 -38 4 -22 2 15 2 37 0 50 -2 12 -4 0 -4 -28z"></path><path id="p1EwCrs0w6" d="M11230 10193 l-115 -118 118 115 c64 63 117 116 117 117 0 8 -13 -5 -120 -114z"></path><path id="pF8Wj2A0K" d="M20333 10260 c0 -25 2 -35 4 -22 2 12 2 32 0 45 -2 12 -4 2 -4 -23z"></path><path id="p11FJKBrgw" d="M7664 10190 c0 -52 1 -74 3 -47 2 26 2 68 0 95 -2 26 -3 4 -3 -48z"></path><path id="pXu7AZTy7" d="M17373 10225 c0 -33 2 -45 4 -27 2 18 2 45 0 60 -2 15 -4 0 -4 -33z"></path><path id="p03bSBk4D" d="M6653 10215 c0 -33 2 -45 4 -27 2 18 2 45 0 60 -2 15 -4 0 -4 -33z"></path><path id="pkARSGFVU" d="M27193 10210 c0 -25 2 -35 4 -22 2 12 2 32 0 45 -2 12 -4 2 -4 -23z"></path><path id="pCuQJlGYy" d="M29744 10145 c0 -60 1 -84 3 -52 2 32 2 81 0 110 -2 29 -3 3 -3 -58z"></path><path id="p4SYVmPpx" d="M25232 10210 c0 -19 2 -27 5 -17 2 9 2 25 0 35 -3 9 -5 1 -5 -18z"></path><path id="p7qTSBXu6" d="M28213 10200 c0 -25 2 -35 4 -22 2 12 2 32 0 45 -2 12 -4 2 -4 -23z"></path><path id="pYuwk8da7" d="M9945 10168 l-50 -53 53 50 c48 46 57 55 49 55 -1 0 -25 -24 -52 -52z"></path><path id="pSJnbMDnC" d="M33873 10180 c0 -25 2 -35 4 -22 2 12 2 32 0 45 -2 12 -4 2 -4 -23z"></path><path id="p1D1nVqlPY" d="M2185 9760 c0 -245 1 -345 2 -223 2 123 2 323 0 445 -1 123 -2 23 -2 -222z"></path><path id="p1EiBbhRTA" d="M31864 9900 c0 -157 2 -221 3 -142 2 78 2 206 0 285 -1 78 -3 14 -3 -143z"></path><path id="p4Mu2UfTF" d="M19323 10135 c0 -22 2 -30 4 -17 2 12 2 30 0 40 -3 9 -5 -1 -4 -23z"></path><path id="pbNcwtOi3" d="M34732 10140 c0 -19 2 -27 5 -17 2 9 2 25 0 35 -3 9 -5 1 -5 -18z"></path><path id="pnMcvUZxG" d="M20342 10130 c0 -19 2 -27 5 -17 2 9 2 25 0 35 -3 9 -5 1 -5 -18z"></path><path id="p14c3TzDoN" d="M15842 10120 c0 -19 2 -27 5 -17 2 9 2 25 0 35 -3 9 -5 1 -5 -18z"></path><path id="pOH2UIGVd" d="M21874 9935 c0 -115 2 -161 3 -102 2 59 2 154 0 210 -1 56 -3 8 -3 -108z"></path><path id="pzJ5Ei7nR" d="M9830 10065 c-24 -25 -42 -45 -39 -45 3 0 25 20 49 45 24 25 42 45 39 45 -3 0 -25 -20 -49 -45z"></path><path id="pT9YZYJzd" d="M27202 10070 c0 -19 2 -27 5 -17 2 9 2 25 0 35 -3 9 -5 1 -5 -18z"></path><path id="p11XtedLt8" d="M36764 9885 c0 -121 2 -169 3 -107 2 62 2 161 0 220 -1 59 -3 8 -3 -113z"></path><path id="p141rJw7pF" d="M28222 10060 c0 -19 2 -27 5 -17 2 9 2 25 0 35 -3 9 -5 1 -5 -18z"></path><path id="p19TGsjf3W" d="M33863 10030 c0 -25 2 -35 4 -22 2 12 2 32 0 45 -2 12 -4 2 -4 -23z"></path><path id="pD4hv4tDo" d="M24251 10055 c0 -5 8 -26 19 -45 11 -19 19 -30 19 -25 0 6 -8 26 -19 45 -11 19 -19 31 -19 25z"></path><path id="plMynCMTv" d="M34723 10005 c0 -22 2 -30 4 -17 2 12 2 30 0 40 -3 9 -5 -1 -4 -23z"></path><path id="pxb3tkAKP" d="M6663 9975 c0 -33 2 -45 4 -27 2 18 2 45 0 60 -2 15 -4 0 -4 -33z"></path><path id="pqcHhWdWF" d="M9725 9970 c-21 -21 -43 -36 -48 -33 -6 3 -7 1 -3 -5 10 -16 6 -18 56 33 24 25 42 45 39 45 -3 0 -22 -18 -44 -40z"></path><path id="p15Rg52pLN" d="M29744 9900 c0 -58 1 -81 3 -52 2 28 2 76 0 105 -2 28 -3 5 -3 -53z"></path><path id="pVuPtsLhs" d="M18334 9855 c0 -60 1 -84 3 -52 2 32 2 81 0 110 -2 29 -3 3 -3 -58z"></path><path id="pFqr7cXLK" d="M7673 9855 c0 -38 2 -53 4 -32 2 20 2 52 0 70 -2 17 -4 1 -4 -38z"></path><path id="pzwjWoaN7" d="M9125 9890 c9 -16 18 -30 21 -30 2 0 -2 14 -11 30 -9 17 -18 30 -21 30 -2 0 2 -13 11 -30z"></path><path id="p6QQnbHsg" d="M33853 9855 c0 -27 2 -38 4 -22 2 15 2 37 0 50 -2 12 -4 0 -4 -28z"></path><path id="p18y1zjQd" d="M30704 9795 c0 -55 1 -76 3 -47 2 29 2 74 0 100 -2 26 -3 2 -3 -53z"></path><path id="p1CcZe3SGY" d="M34713 9850 c0 -25 2 -35 4 -22 2 12 2 32 0 45 -2 12 -4 2 -4 -23z"></path><path id="prIiPE7Rp" d="M32843 9220 l2 -665 5 650 c3 358 2 657 -2 665 -4 8 -6 -284 -5 -650z"></path><path id="pXyEGXbx8" d="M4155 9525 c0 -192 1 -270 2 -172 2 98 2 256 0 350 -1 95 -3 15 -2 -178z"></path><path id="pkItZVrXW" d="M17373 9755 c0 -27 2 -38 4 -22 2 15 2 37 0 50 -2 12 -4 0 -4 -28z"></path><path id="pp9Ycdmw0" d="M6673 9735 c0 -33 2 -45 4 -27 2 18 2 45 0 60 -2 15 -4 0 -4 -33z"></path><path id="pvkYrbS5X" d="M9210 9730 c11 -22 23 -40 25 -40 3 0 -4 18 -15 40 -11 22 -23 40 -25 40 -3 0 4 -18 15 -40z"></path><path id="ppTuTMOxn" d="M13514 9675 c0 -55 1 -76 3 -47 2 29 2 74 0 100 -2 26 -3 2 -3 -53z"></path><path id="pHOEV3GgZ" d="M1506 9730 c6 -8 16 -24 22 -35 6 -11 12 -15 12 -8 0 7 -10 22 -22 35 -13 13 -18 17 -12 8z"></path><path id="pSSsBi7kN" d="M35854 9600 c0 -80 2 -112 3 -72 2 39 2 105 0 145 -1 39 -3 7 -3 -73z"></path><path id="pPH1Eb3Lh" d="M10590 9679 c-36 -28 -72 -57 -80 -66 -8 -9 22 12 68 46 45 34 82 64 82 66 0 8 -1 7 -70 -46z"></path><path id="p4aelPwpQ" d="M22844 9555 c0 -99 2 -138 3 -87 2 51 2 132 0 180 -1 48 -3 6 -3 -93z"></path><path id="pKfuNQUjv" d="M34703 9675 c0 -27 2 -38 4 -22 2 15 2 37 0 50 -2 12 -4 0 -4 -28z"></path><path id="pmNRTC0mw" d="M29732 9670 c0 -19 2 -27 5 -17 2 9 2 25 0 35 -3 9 -5 1 -5 -18z"></path><path id="p1EL7xWUTW" d="M33843 9645 c0 -33 2 -45 4 -27 2 18 2 45 0 60 -2 15 -4 0 -4 -33z"></path><path id="po9xsFrgY" d="M7683 9590 c0 -36 2 -50 4 -32 2 17 2 47 0 65 -2 17 -4 3 -4 -33z"></path><path id="p80pJFpI3" d="M21862 9590 c0 -19 2 -27 5 -17 2 9 2 25 0 35 -3 9 -5 1 -5 -18z"></path><path id="pWrk0rh82" d="M6683 9505 c0 -33 2 -45 4 -27 2 18 2 45 0 60 -2 15 -4 0 -4 -33z"></path><path id="plU8qQfba" d="M18343 9485 c0 -44 2 -61 4 -37 2 23 2 59 0 80 -2 20 -4 1 -4 -43z"></path><path id="p1BBV6tuQ6" d="M1507 9505 c-9 -19 -15 -35 -12 -35 7 0 37 61 33 66 -3 2 -12 -12 -21 -31z"></path><path id="plNReG5IQ" d="M30713 9445 c0 -44 2 -61 4 -37 2 23 2 59 0 80 -2 20 -4 1 -4 -43z"></path><path id="pKrjynFM7" d="M10335 9484 l-30 -26 33 22 c17 12 32 23 32 26 0 7 -4 5 -35 -22z"></path><path id="pff7T4ivZ" d="M34693 9450 c0 -36 2 -50 4 -32 2 17 2 47 0 65 -2 17 -4 3 -4 -33z"></path><path id="p9yU5Jzjz" d="M710 9373 l-95 -98 98 95 c90 88 102 100 94 100 -1 0 -45 -44 -97 -97z"></path><path id="p17Tuc6MPV" d="M12435 9100 c0 -201 1 -283 2 -182 2 100 2 264 0 365 -1 100 -2 18 -2 -183z"></path><path id="pZiq2XOdM" d="M33834 9350 c0 -52 1 -74 3 -47 2 26 2 68 0 95 -2 26 -3 4 -3 -48z"></path><path id="pPc8K5wtc" d="M36773 9350 c0 -47 2 -66 4 -42 2 23 2 61 0 85 -2 23 -4 4 -4 -43z"></path><path id="ptzUhwSVu" d="M7693 9330 c0 -36 2 -50 4 -32 2 17 2 47 0 65 -2 17 -4 3 -4 -33z"></path><path id="peF0IyN2i" d="M13524 9285 c0 -49 1 -71 3 -48 2 23 2 64 0 90 -2 26 -3 8 -3 -42z"></path><path id="phpNQvO8" d="M6693 9275 c0 -33 2 -45 4 -27 2 18 2 45 0 60 -2 15 -4 0 -4 -33z"></path><path id="pp2i80aLU" d="M10086 9301 c-3 -4 7 -19 22 -32 l27 -24 -23 26 c-12 14 -19 29 -15 32 3 4 4 7 0 7 -3 0 -8 -4 -11 -9z"></path><path id="pHJZGbAXh" d="M1340 9219 c-12 -23 -20 -43 -18 -45 3 -2 14 17 26 41 27 56 20 60 -8 4z"></path><path id="p1DaY1hVgP" d="M35863 9200 c0 -36 2 -50 4 -32 2 17 2 47 0 65 -2 17 -4 3 -4 -33z"></path><path id="ptwKQi5Y2" d="M18353 9150 c0 -47 2 -66 4 -42 2 23 2 61 0 85 -2 23 -4 4 -4 -43z"></path><path id="p15UWHpGKv" d="M34684 9135 c0 -55 1 -76 3 -47 2 29 2 74 0 100 -2 26 -3 2 -3 -53z"></path><path id="p1Eai18S5p" d="M6277 9179 c10 -17 24 -36 32 -42 8 -7 2 7 -14 31 -32 49 -45 57 -18 11z"></path><path id="pvNlIx0tj" d="M30724 9105 c0 -49 1 -71 3 -48 2 23 2 64 0 90 -2 26 -3 8 -3 -42z"></path><path id="p6xJGuPJp" d="M5085 8795 c0 -203 1 -285 2 -182 2 104 2 270 0 370 -1 100 -2 16 -2 -188z"></path><path id="pV6kJnyvA" d="M7703 9080 c0 -36 2 -50 4 -32 2 17 2 47 0 65 -2 17 -4 3 -4 -33z"></path><path id="p17wJsjidH" d="M20580 9126 c0 -11 50 -106 55 -106 3 0 -7 24 -21 53 -28 55 -34 65 -34 53z"></path><path id="pN0TAtVLh" d="M31874 8940 c0 -96 2 -136 3 -87 2 48 2 126 0 175 -1 48 -3 8 -3 -88z"></path><path id="p3lfSXPiL" d="M36783 9050 c0 -36 2 -50 4 -32 2 17 2 47 0 65 -2 17 -4 3 -4 -33z"></path><path id="pMmS3mjBs" d="M5571 9095 c0 -5 6 -21 14 -35 8 -14 14 -20 14 -15 0 6 -6 21 -14 35 -8 14 -14 21 -14 15z"></path><path id="pQRHTJEJC" d="M6703 9035 c0 -33 2 -45 4 -27 2 18 2 45 0 60 -2 15 -4 0 -4 -33z"></path><path id="p11RXwAg8" d="M23960 9065 c0 -9 -12 -27 -27 -41 l-28 -25 33 22 c17 13 32 31 32 41 0 10 -2 18 -5 18 -3 0 -5 -7 -5 -15z"></path><path id="ppSnkP4j9" d="M24843 9043 c31 -2 83 -2 115 0 31 2 5 3 -58 3 -63 0 -89 -1 -57 -3z"></path><path id="p13ZTJqhDF" d="M22854 8930 c0 -63 1 -89 3 -57 2 31 2 83 0 115 -2 31 -3 5 -3 -58z"></path><path id="pK7fXGtoE" d="M25173 9033 c15 -2 37 -2 50 0 12 2 0 4 -28 4 -27 0 -38 -2 -22 -4z"></path><path id="p2PjkAdXt" d="M13533 8955 c0 -44 2 -61 4 -37 2 23 2 59 0 80 -2 20 -4 1 -4 -43z"></path><path id="pfa05TbNo" d="M16115 8990 c9 -16 18 -30 21 -30 2 0 -2 14 -11 30 -9 17 -18 30 -21 30 -2 0 2 -13 11 -30z"></path><path id="p13fcvecR6" d="M23855 8958 l-40 -43 43 40 c39 36 47 45 39 45 -2 0 -21 -19 -42 -42z"></path><path id="pJrilnGzu" d="M29557 8925 c-9 -19 -15 -35 -12 -35 7 0 37 61 33 66 -3 2 -12 -12 -21 -31z"></path><path id="p1u17Hoxj" d="M9032 8920 c0 -19 2 -27 5 -17 2 9 2 25 0 35 -3 9 -5 1 -5 -18z"></path><path id="p16oCFTztQ" d="M21702 8895 c-12 -25 -20 -45 -17 -45 7 0 47 81 43 86 -3 2 -14 -17 -26 -41z"></path><path id="p13GQTw8Q4" d="M5685 8860 c9 -16 18 -30 21 -30 2 0 -2 14 -11 30 -9 17 -18 30 -21 30 -2 0 2 -13 11 -30z"></path><path id="pUkYVyj5" d="M7713 8830 c0 -36 2 -50 4 -32 2 17 2 47 0 65 -2 17 -4 3 -4 -33z"></path><path id="p156ou2AMP" d="M6530 8845 c19 -19 36 -35 39 -35 3 0 -10 16 -29 35 -19 19 -36 35 -39 35 -3 0 10 -16 29 -35z"></path><path id="p18soNicKb" d="M36793 8815 c0 -33 2 -45 4 -27 2 18 2 45 0 60 -2 15 -4 0 -4 -33z"></path><path id="ptVXNSnqn" d="M10405 8830 c9 -16 18 -30 21 -30 2 0 -2 14 -11 30 -9 17 -18 30 -21 30 -2 0 2 -13 11 -30z"></path><path id="pCd71aMSF" d="M18364 8760 c0 -52 1 -74 3 -47 2 26 2 68 0 95 -2 26 -3 4 -3 -48z"></path><path id="p7DANExWo" d="M6713 8790 c0 -30 2 -43 4 -27 2 15 2 39 0 55 -2 15 -4 2 -4 -28z"></path><path id="pKAPI5Y7F" d="M27500 8836 c0 -10 70 -146 75 -146 3 0 -11 33 -31 73 -38 74 -44 85 -44 73z"></path><path id="pkTZsWuK3" d="M16280 8765 c30 -30 57 -55 59 -55 3 0 -19 25 -49 55 -30 30 -57 55 -59 55 -3 0 19 -25 49 -55z"></path><path id="p1GzDnUtNS" d="M20810 8778 c41 -45 50 -53 50 -45 0 2 -21 23 -47 47 l-48 45 45 -47z"></path><path id="pjK6SsXGD" d="M6600 8765 c19 -19 36 -35 39 -35 3 0 -10 16 -29 35 -19 19 -36 35 -39 35 -3 0 10 -16 29 -35z"></path><path id="ptzJBP6VD" d="M26483 8740 c0 -36 2 -50 4 -32 2 17 2 47 0 65 -2 17 -4 3 -4 -33z"></path><path id="p19FkccfFb" d="M30734 8715 c0 -49 1 -71 3 -48 2 23 2 64 0 90 -2 26 -3 8 -3 -42z"></path><path id="pPN6ahHj1" d="M29420 8733 l-55 -58 58 55 c31 30 57 56 57 57 0 8 -10 -1 -60 -54z"></path><path id="p4j51lVDM" d="M21585 8728 l-50 -53 53 50 c48 46 57 55 49 55 -1 0 -25 -24 -52 -52z"></path><path id="p1AqXPm9u9" d="M13543 8655 c0 -38 2 -53 4 -32 2 20 2 52 0 70 -2 17 -4 1 -4 -38z"></path><path id="p1Al4cazki" d="M34673 8595 c0 -44 2 -61 4 -37 2 23 2 59 0 80 -2 20 -4 1 -4 -43z"></path><path id="pmEgz88eu" d="M16920 8640 c-19 -11 -31 -19 -27 -20 11 0 67 29 67 35 0 7 -1 7 -40 -15z"></path><path id="pjwFU08pB" d="M28790 8655 c0 -7 61 -37 66 -33 2 3 -12 12 -31 21 -19 9 -35 15 -35 12z"></path><path id="pvRNNev9G" d="M29290 8640 c-19 -11 -31 -19 -27 -20 11 0 67 29 67 35 0 7 -1 7 -40 -15z"></path><path id="p17J5j8H05" d="M36803 8610 c0 -30 2 -43 4 -27 2 15 2 39 0 55 -2 15 -4 2 -4 -28z"></path><path id="pTPm35tYH" d="M22863 8565 c0 -38 2 -53 4 -32 2 20 2 52 0 70 -2 17 -4 1 -4 -38z"></path><path id="pxb2vCxjf" d="M5857 8570 c9 -17 28 -43 41 -58 13 -15 6 -1 -14 31 -38 59 -58 79 -27 27z"></path><path id="pCZ82FoO6" d="M16658 8583 c17 -2 47 -2 65 0 17 2 3 4 -33 4 -36 0 -50 -2 -32 -4z"></path><path id="pRtTMm62k" d="M29028 8583 c17 -2 47 -2 65 0 17 2 3 4 -33 4 -36 0 -50 -2 -32 -4z"></path><path id="pXDaRKvTU" d="M1173 8520 c0 -25 2 -35 4 -22 2 12 2 32 0 45 -2 12 -4 2 -4 -23z"></path><path id="p1FX49cM3L" d="M23663 8495 c0 -38 2 -53 4 -32 2 20 2 52 0 70 -2 17 -4 1 -4 -38z"></path><path id="p13TvrkDUK" d="M36802 8490 c0 -19 2 -27 5 -17 2 9 2 25 0 35 -3 9 -5 1 -5 -18z"></path><path id="p15ZkDuQi7" d="M18373 8445 c0 -38 2 -53 4 -32 2 20 2 52 0 70 -2 17 -4 1 -4 -38z"></path><path id="pOvFByB3G" d="M30743 8405 c0 -44 2 -61 4 -37 2 23 2 59 0 80 -2 20 -4 1 -4 -43z"></path><path id="pUStqusqB" d="M15360 8430 c12 -16 24 -30 26 -30 3 0 -4 14 -16 30 -12 17 -24 30 -26 30 -3 0 4 -13 16 -30z"></path><path id="p14z712vfB" d="M13553 8385 c0 -33 2 -45 4 -27 2 18 2 45 0 60 -2 15 -4 0 -4 -33z"></path><path id="ps1YUEOy7" d="M26340 8395 c-24 -25 -42 -45 -39 -45 3 0 25 20 49 45 24 25 42 45 39 45 -3 0 -25 -20 -49 -45z"></path><path id="pSq2IIddB" d="M27750 8400 c12 -16 24 -30 26 -30 3 0 -4 14 -16 30 -12 17 -24 30 -26 30 -3 0 4 -13 16 -30z"></path><path id="pexjVGqWq" d="M21862 8339 c-8 -12 -9 -18 -3 -15 7 4 11 -24 14 -81 l3 -88 2 103 c1 56 1 102 -1 102 -1 0 -8 -9 -15 -21z"></path><path id="prUDOUI6l" d="M31884 8225 c0 -77 2 -107 3 -67 2 40 2 103 0 140 -2 37 -3 4 -3 -73z"></path><path id="p15R8ziWLR" d="M4164 8165 c0 -82 2 -115 3 -72 2 43 2 110 0 150 -1 40 -3 5 -3 -78z"></path><path id="ph5In8CNX" d="M7569 8253 l-34 -38 38 34 c34 33 42 41 34 41 -2 0 -19 -17 -38 -37z"></path><path id="pZrC1A21v" d="M6135 8220 c33 -33 62 -60 64 -60 3 0 -21 27 -54 60 -33 33 -62 60 -64 60 -3 0 21 -27 54 -60z"></path><path id="pCyJcqYz3" d="M27885 8230 c21 -22 41 -40 44 -40 3 0 -13 18 -34 40 -21 22 -41 40 -44 40 -3 0 13 -18 34 -40z"></path><path id="pa0hRGl8G" d="M36679 8233 l-34 -38 38 34 c34 33 42 41 34 41 -2 0 -19 -17 -38 -37z"></path><path id="pqFMeM9uc" d="M15575 8170 c44 -44 82 -80 85 -80 2 0 -31 36 -75 80 -44 44 -82 80 -85 80 -2 0 31 -36 75 -80z"></path><path id="pSFFM5J3Z" d="M17274 8218 l-29 -33 33 29 c30 28 37 36 29 36 -2 0 -16 -15 -33 -32z"></path><path id="p1G15HTAf2" d="M1173 8195 c0 -27 2 -38 4 -22 2 15 2 37 0 50 -2 12 -4 0 -4 -28z"></path><path id="p1EmnHkNiJ" d="M2195 7825 c0 -231 1 -324 2 -207 2 117 2 306 0 420 -1 114 -2 18 -2 -213z"></path><path id="pduBIuCLz" d="M29575 8148 l-90 -93 93 90 c85 83 97 95 89 95 -1 0 -43 -42 -92 -92z"></path><path id="pxAeOD1wg" d="M20070 8165 c35 -36 67 -65 69 -65 3 0 -24 29 -59 65 -35 36 -67 65 -69 65 -3 0 24 -29 59 -65z"></path><path id="p18Rzhx6mW" d="M21705 8148 l-60 -63 63 60 c58 55 67 65 59 65 -1 0 -29 -28 -62 -62z"></path><path id="psqBrrvPk" d="M13563 8140 c0 -36 2 -50 4 -32 2 17 2 47 0 65 -2 17 -4 3 -4 -33z"></path><path id="pliOlGHB1" d="M18315 8172 c-17 -15 -41 -35 -55 -45 -24 -17 -24 -17 8 0 18 10 45 30 59 45 34 36 27 36 -12 0z"></path><path id="pKow1DmuQ" d="M24853 8155 c0 -27 2 -38 4 -22 2 15 2 37 0 50 -2 12 -4 0 -4 -28z"></path><path id="pNX4IXc5B" d="M9375 8120 c38 -38 72 -70 74 -70 3 0 -26 32 -64 70 -38 39 -72 70 -74 70 -3 0 26 -31 64 -70z"></path><path id="pNK08fN4j" d="M272 8120 c0 -19 2 -27 5 -17 2 9 2 25 0 35 -3 9 -5 1 -5 -18z"></path><path id="pITgdtCUf" d="M28005 8110 c21 -22 41 -40 44 -40 3 0 -13 18 -34 40 -21 22 -41 40 -44 40 -3 0 13 -18 34 -40z"></path><path id="pAcSXi0ED" d="M17149 8093 l-34 -38 38 34 c34 33 42 41 34 41 -2 0 -19 -17 -38 -37z"></path><path id="pK24rwMNk" d="M22730 8110 c-19 -11 -31 -19 -27 -20 11 0 67 29 67 35 0 7 -1 7 -40 -15z"></path><path id="pvFoRuNjH" d="M32769 8073 l-34 -38 38 34 c20 19 37 36 37 38 0 8 -8 0 -41 -34z"></path><path id="p4kREGPvO" d="M35558 8055 c11 -16 37 -46 58 -65 31 -28 29 -24 -10 20 -66 74 -73 80 -48 45z"></path><path id="pBV6DvwJx" d="M29780 8067 c0 -2 15 -16 33 -33 l32 -29 -29 33 c-28 30 -36 37 -36 29z"></path><path id="pjaJ1MAMh" d="M29440 8029 c-35 -31 -35 -31 -3 -9 18 11 35 25 38 30 10 16 2 11 -35 -21z"></path><path id="p1H6PsVX6w" d="M34330 8030 c-19 -11 -31 -19 -27 -20 11 0 67 29 67 35 0 7 -1 7 -40 -15z"></path><path id="pA9jJdlpe" d="M17459 8026 c13 -16 51 -41 51 -33 0 2 -15 14 -32 27 -21 15 -28 17 -19 6z"></path><path id="pNq8U1Oli" d="M17022 7996 c-46 -33 -53 -43 -14 -20 19 10 38 25 44 32 15 17 8 14 -30 -12z"></path><path id="p11VxLH9fD" d="M9517 7999 c12 -15 73 -53 73 -46 0 2 -19 17 -42 32 -24 16 -38 22 -31 14z"></path><path id="pgHueWlRk" d="M12442 7853 l-2 -162 -72 -4 -73 -3 73 -2 c52 -1 74 2 78 11 2 7 3 82 1 167 l-3 155 -2 -162z"></path><path id="pF2Pd0LcL" d="M4170 7993 c0 -7 12 -25 28 -41 15 -15 20 -19 11 -7 -9 11 -21 29 -27 40 -6 11 -12 14 -12 8z"></path><path id="pviMTOti8" d="M10499 7933 l-34 -38 38 34 c34 33 42 41 34 41 -2 0 -19 -17 -38 -37z"></path><path id="pN6n0gjgj" d="M13573 7910 c0 -30 2 -43 4 -27 2 15 2 39 0 55 -2 15 -4 2 -4 -28z"></path><path id="p199VD2BXl" d="M28220 7955 c0 -7 101 -57 106 -53 2 2 -21 16 -51 31 -30 15 -55 25 -55 22z"></path><path id="pC67RjBwD" d="M35660 7955 c0 -7 61 -37 66 -33 2 3 -12 12 -31 21 -19 9 -35 15 -35 12z"></path><path id="pvaDKRId3" d="M21380 7915 c-25 -13 -41 -24 -37 -25 11 0 87 39 87 45 0 7 0 7 -50 -20z"></path><path id="ppqxJsxX7" d="M4328 7893 c17 -2 47 -2 65 0 17 2 3 4 -33 4 -36 0 -50 -2 -32 -4z"></path><path id="pUF0vhfix" d="M6787 7893 c18 -2 50 -2 70 0 21 2 7 4 -32 4 -38 0 -55 -2 -38 -4z"></path><path id="pkwWtGBk0" d="M33808 7893 c17 -2 47 -2 65 0 17 2 3 4 -33 4 -36 0 -50 -2 -32 -4z"></path><path id="p126nxR6TV" d="M24020 7785 c0 -7 61 -37 66 -33 2 3 -12 12 -31 21 -19 9 -35 15 -35 12z"></path><path id="p1BZB454j8" d="M13581 7738 c-1 -23 3 -28 22 -27 15 1 17 3 5 6 -9 2 -19 14 -21 26 -4 18 -5 17 -6 -5z"></path><path id="pE4m7SGD1" d="M14093 7703 c75 -2 199 -2 275 0 75 1 13 3 -138 3 -151 0 -213 -2 -137 -3z"></path><path id="pj7GWaEkq" d="M14763 7693 c15 -2 39 -2 55 0 15 2 2 4 -28 4 -30 0 -43 -2 -27 -4z"></path><path id="p14jxWc19p" d="M24338 7693 c23 -2 61 -2 85 0 23 2 4 4 -43 4 -47 0 -66 -2 -42 -4z"></path><path id="pX29VtGVd" d="M11953 7673 c26 -2 68 -2 95 0 26 2 4 3 -48 3 -52 0 -74 -1 -47 -3z"></path><path id="pFzuj8AFt" d="M14900 7677 c0 -2 15 -16 33 -33 l32 -29 -29 33 c-28 30 -36 37 -36 29z"></path><path id="pXrGY5ptH" d="M11578 7663 c23 -2 61 -2 85 0 23 2 4 4 -43 4 -47 0 -66 -2 -42 -4z"></path><path id="pQQpbVW8r" d="M14982 7565 c12 -24 23 -43 26 -41 4 5 -36 86 -43 86 -3 0 5 -20 17 -45z"></path><path id="p13sDVgwr6" d="M11253 7445 c0 -33 2 -45 4 -27 2 18 2 45 0 60 -2 15 -4 0 -4 -33z"></path><path id="p1TsNMUZ4" d="M14733 7033 c9 -2 25 -2 35 0 9 3 1 5 -18 5 -19 0 -27 -2 -17 -5z"></path><path id="pEEPxNBiz" d="M14588 7023 c12 -2 32 -2 45 0 12 2 2 4 -23 4 -25 0 -35 -2 -22 -4z"></path><path id="p19mI2ldzN" d="M14403 7013 c15 -2 39 -2 55 0 15 2 2 4 -28 4 -30 0 -43 -2 -27 -4z"></path><path id="pgA5Voyfg" d="M14148 7003 c18 -2 45 -2 60 0 15 2 0 4 -33 4 -33 0 -45 -2 -27 -4z"></path><path id="pi8qmuu7a" d="M13958 6993 c12 -2 32 -2 45 0 12 2 2 4 -23 4 -25 0 -35 -2 -22 -4z"></path><path id="pWFIDJ4H8" d="M13808 6983 c12 -2 30 -2 40 0 9 3 -1 5 -23 4 -22 0 -30 -2 -17 -4z"></path><path id="p16PnHLGwm" d="M13668 6973 c12 -2 30 -2 40 0 9 3 -1 5 -23 4 -22 0 -30 -2 -17 -4z"></path><path id="pOC3zLrQm" d="M13603 6880 c0 -36 2 -50 4 -32 2 17 2 47 0 65 -2 17 -4 3 -4 -33z"></path><path id="p8MlNEpJB" d="M12238 6923 c18 -2 45 -2 60 0 15 2 0 4 -33 4 -33 0 -45 -2 -27 -4z"></path><path id="pmpdvUyco" d="M11998 6913 c18 -2 45 -2 60 0 15 2 0 4 -33 4 -33 0 -45 -2 -27 -4z"></path><path id="pMnoL1kCW" d="M11768 6903 c18 -2 45 -2 60 0 15 2 0 4 -33 4 -33 0 -45 -2 -27 -4z"></path><path id="p7NhxExVB" d="M11498 6893 c17 -2 47 -2 65 0 17 2 3 4 -33 4 -36 0 -50 -2 -32 -4z"></path><path id="p1Dsah8TBV" d="M12504 6785 c0 -55 1 -76 3 -47 2 29 2 74 0 100 -2 26 -3 2 -3 -53z"></path><path id="pYAkRnBdj" d="M13613 6630 c0 -36 2 -50 4 -32 2 17 2 47 0 65 -2 17 -4 3 -4 -33z"></path><path id="p19VdA2GWE" d="M3244 6390 c0 -129 2 -182 3 -117 2 64 2 170 0 235 -1 64 -3 11 -3 -118z"></path><path id="pI6K22Diw" d="M12513 6415 c0 -44 2 -61 4 -37 2 23 2 59 0 80 -2 20 -4 1 -4 -43z"></path><path id="pwGSNrSkN" d="M1780 6450 c12 -16 24 -30 26 -30 3 0 -4 14 -16 30 -12 17 -24 30 -26 30 -3 0 4 -13 16 -30z"></path><path id="pinchRoDs" d="M13623 6375 c0 -33 2 -45 4 -27 2 18 2 45 0 60 -2 15 -4 0 -4 -33z"></path><path id="p18wx9sWS6" d="M1990 6205 c52 -52 97 -95 100 -95 2 0 -38 43 -90 95 -52 52 -97 95 -100 95 -2 0 38 -43 90 -95z"></path><path id="pDBHCMknd" d="M1305 6090 c82 -82 152 -150 155 -150 2 0 -63 68 -145 150 -82 83 -152 150 -155 150 -2 0 63 -67 145 -150z"></path><path id="p11shtC6VI" d="M12523 6130 c0 -36 2 -50 4 -32 2 17 2 47 0 65 -2 17 -4 3 -4 -33z"></path><path id="pFGxRBByL" d="M13633 6135 c0 -33 2 -45 4 -27 2 18 2 45 0 60 -2 15 -4 0 -4 -33z"></path><path id="pi5I4YiIB" d="M12533 5915 c0 -27 2 -38 4 -22 2 15 2 37 0 50 -2 12 -4 0 -4 -28z"></path><path id="pVhbcmrem" d="M13643 5910 c0 -30 2 -43 4 -27 2 15 2 39 0 55 -2 15 -4 2 -4 -28z"></path><path id="prvWbhgry" d="M1600 5827 c0 -3 18 -20 40 -37 22 -17 40 -29 40 -27 0 3 -18 20 -40 37 -22 17 -40 29 -40 27z"></path><path id="prpUggalb" d="M12542 5750 c0 -19 2 -27 5 -17 2 9 2 25 0 35 -3 9 -5 1 -5 -18z"></path><path id="p1GZbRtqOo" d="M3150 5675 c-24 -25 -42 -45 -39 -45 3 0 25 20 49 45 24 25 42 45 39 45 -3 0 -25 -20 -49 -45z"></path><path id="pT3lVtf7G" d="M12632 5468 c20 -21 43 -38 50 -38 7 0 4 6 -7 12 -11 6 -34 22 -50 37 -17 14 -14 9 7 -11z"></path><path id="p1Bg2tZhKJ" d="M2408 5413 c17 -2 47 -2 65 0 17 2 3 4 -33 4 -36 0 -50 -2 -32 -4z"></path></g></g></svg>